<svg id="Layer_1" data-name="Layer 1" xmlns="http://www.w3.org/2000/svg" xmlns:xlink="http://www.w3.org/1999/xlink" viewBox="0 0 369.53 281.38"><defs><linearGradient id="linear-gradient" x1="157.8" y1="392.22" x2="326.3" y2="-282.82" gradientUnits="userSpaceOnUse"><stop offset="0.01"/><stop offset="0.08" stop-opacity="0.69"/><stop offset="0.21" stop-opacity="0.32"/><stop offset="1" stop-opacity="0"/></linearGradient></defs><title>9</title><path d="M186.19,30.59c-1.72-.06-3.43-.1-5.13-.14-27.29-.57-55.14.35-80.91,9.34S50.63,67,40.72,92.4c-5.13,13.19-6.34,27.51-8.25,41.53-3.57,26.29-9.78,52.35-10.11,78.87s6,54.44,24.21,73.76c31.59,33.56,75.41,13.67,113,4.63a157.66,157.66,0,0,1,68-1.21c14.84,3,29.17,8.17,44,11.35,10.67,2.29,21.77,3.55,32.64,2.14,10.44-1.35,18.49-6.33,28-10.34,18.1-7.68,36.4-17.46,47.94-33.95A67.46,67.46,0,0,0,391.63,215c-3.55-41.16-42-58.44-61.85-90.79-11.56-18.8-19.44-40.12-34.31-56.42C268.79,38.59,226.05,31.86,186.19,30.59Z" transform="translate(-22.35 -30.32)" fill="#6ed796" opacity="0.18" style="isolation:isolate"/><path d="M245.12,72.07V276.22a17.83,17.83,0,0,1-17.83,17.83H138.93a17.83,17.83,0,0,1-17.83-17.83V72.07a17.83,17.83,0,0,1,17.83-17.84h88.36A17.83,17.83,0,0,1,245.12,72.07Z" transform="translate(-22.35 -30.32)" fill="#6ed796"/><rect x="101.19" y="26.94" width="119.13" height="233.39" rx="17.24" fill="#473f47"/><path d="M239.43,76.45V269.06a16.47,16.47,0,0,1-16.63,16.3H143.49a16.71,16.71,0,0,1-8.27-2.16,16.22,16.22,0,0,1-8.38-14.14V76.45a16.48,16.48,0,0,1,16.65-16.3h13.4v2.37a7.89,7.89,0,0,0,5,7.17,8.32,8.32,0,0,0,3.05.58h36.84a8,8,0,0,0,8.05-7.88V60.15h13a16.77,16.77,0,0,1,11.49,4.52A16.1,16.1,0,0,1,239.43,76.45Z" transform="translate(-22.35 -30.32)" fill="#fff"/><rect x="118.47" y="160.84" width="48.99" height="2.91" rx="1.45" fill="#6ed796" opacity="0.31" style="isolation:isolate"/><rect x="118.47" y="167.95" width="48.99" height="2.91" rx="1.45" fill="#6ed796" opacity="0.31" style="isolation:isolate"/><rect x="98.74" y="134.65" width="124.03" height="7.79" fill="#6ed796" opacity="0.18" style="isolation:isolate"/><path d="M80.19,115H231.25a10.13,10.13,0,0,1,10.13,10.13v0a10.13,10.13,0,0,1-10.13,10.13H80.19a0,0,0,0,1,0,0V115A0,0,0,0,1,80.19,115Z" fill="#6ed796"/><rect x="80.19" y="115" width="121.98" height="20.25" fill="#fff"/><circle cx="220.28" cy="123.98" r="4.89" fill="none" stroke="#fff" stroke-miterlimit="10" stroke-width="1.45"/><path d="M247.1,162.25l-2-3.73" transform="translate(-22.35 -30.32)" fill="none" stroke="#fff" stroke-miterlimit="10" stroke-width="1.45"/><rect x="118.47" y="153.63" width="78.84" height="4.68" rx="2.34" fill="#6ed796"/><rect x="118.47" y="185.31" width="48.99" height="2.91" rx="1.45" fill="#6ed796" opacity="0.31" style="isolation:isolate"/><rect x="118.47" y="192.42" width="48.99" height="2.91" rx="1.45" fill="#6ed796" opacity="0.31" style="isolation:isolate"/><rect x="118.47" y="178.09" width="78.84" height="4.68" rx="2.34" fill="#6ed796"/><rect x="118.47" y="209.77" width="48.99" height="2.91" rx="1.45" fill="#6ed796" opacity="0.31" style="isolation:isolate"/><rect x="118.47" y="216.89" width="48.99" height="2.91" rx="1.45" fill="#6ed796" opacity="0.31" style="isolation:isolate"/><rect x="118.47" y="202.56" width="78.84" height="4.68" rx="2.34" fill="#6ed796"/><g opacity="0.41"><path d="M229.21,115.73a51.69,51.69,0,0,1,15.91,2.49v-7.31a59.06,59.06,0,1,0,0,113.76v-7.31a52.06,52.06,0,1,1-15.91-101.63Z" transform="translate(-22.35 -30.32)" fill="url(#linear-gradient)"/></g><path d="M232.36,224A59.06,59.06,0,1,1,291.42,165,59.13,59.13,0,0,1,232.36,224Zm0-111.12A52.06,52.06,0,1,0,284.42,165,52.11,52.11,0,0,0,232.36,112.91Z" transform="translate(-22.35 -30.32)" fill="#6ed796"/><path d="M312.35,252.45a6,6,0,0,1-4.28-1.79l-38.7-39.27a6,6,0,1,1,8.55-8.42l38.7,39.27a6,6,0,0,1-4.27,10.21Z" transform="translate(-22.35 -30.32)" fill="#6ed796"/><path d="M330.89,264.93a7.06,7.06,0,0,1-10-.07l-45.56-46.24a5.88,5.88,0,0,1-.69-.82q-.18-.24-.33-.48a3.08,3.08,0,0,1,.28-3.54,26.38,26.38,0,0,1,2.89-2.94,24.64,24.64,0,0,1,3.86-2.81,3.11,3.11,0,0,1,3.63.31l0,0a4.1,4.1,0,0,1,.39.35L331,254.94A7.06,7.06,0,0,1,330.89,264.93Z" transform="translate(-22.35 -30.32)" fill="#473f47"/><path d="M167.05,104.39v20.36A10.09,10.09,0,0,1,157,134.84H121.1V94.3H157A10.09,10.09,0,0,1,167.05,104.39Z" transform="translate(-22.35 -30.32)" fill="#6ed796" opacity="0.18" style="isolation:isolate"/><rect x="55.96" y="58.63" width="87" height="40.54" rx="10.09" fill="#fff"/><circle cx="139.91" cy="59.85" r="7.27" fill="#6ed796"/><rect x="73.14" y="71.58" width="51.24" height="4.01" rx="2" fill="#6ed796"/><rect x="73.14" y="82.25" width="51.24" height="4.01" rx="2" fill="#6ed796"/><path d="M326.28,296.43a3.42,3.42,0,0,1,.3,3.83,3.17,3.17,0,0,1-3.46,1.39,1.53,1.53,0,0,1-.62-.32c-.37-.36-.43-1-.78-1.36a2.58,2.58,0,0,0-1.27-.56,9.08,9.08,0,0,1-2.31-1.25.91.91,0,0,1-.29-.26.92.92,0,0,1-.11-.43,3.21,3.21,0,0,1,.33-2.26,2.56,2.56,0,0,1,.76-.63,3.68,3.68,0,0,1,1.83-.55,4.76,4.76,0,0,1,1.47.34,11.26,11.26,0,0,1,3.68,1.84" transform="translate(-22.35 -30.32)" fill="#6ed796"/><path d="M323.69,290.3l2.23,7.68s-.42,1.93-2.78,1.12-4.34-6.86-4.34-6.86Z" transform="translate(-22.35 -30.32)" fill="#fcbdba"/><path d="M300.15,306.36a9.44,9.44,0,0,0-1.84-.13,2.28,2.28,0,0,0-1.62.78,2.35,2.35,0,0,0,.44,3,5.43,5.43,0,0,0,2.95,1.22,4.49,4.49,0,0,0,2,0c.83-.24,1.62-.93,2.45-.67a3.85,3.85,0,0,1,1,.61,2.76,2.76,0,0,0,3.74-.47,3.55,3.55,0,0,0,.51-1.18c.35-1.33.19-3-.91-3.77-1.3-.93-2.31-.29-3.56.14A12.35,12.35,0,0,1,300.15,306.36Z" transform="translate(-22.35 -30.32)" fill="#6ed796"/><path d="M301.23,298.91l3.26,8s1.87,1.13,3.2.63L309,307l-1.15-11.17Z" transform="translate(-22.35 -30.32)" fill="#fcbdba"/><path d="M277,217.59c-.22-.29-.51-.61-.86-.56s-.41.19-.62.13a.64.64,0,0,1-.32-.25,10.08,10.08,0,0,0-1.65-1.41,2.89,2.89,0,0,0-1.28-.65,1.75,1.75,0,0,0-1.67,1,3,3,0,0,0-.21,2,7.44,7.44,0,0,0,.8,1.91A5.68,5.68,0,0,0,272,221c1,1.09,2.66,1.27,4,1.94a1.14,1.14,0,0,0,.47.16.92.92,0,0,0,.67-.49,5.13,5.13,0,0,0,.91-2.5A4.37,4.37,0,0,0,277,217.59Z" transform="translate(-22.35 -30.32)" fill="#fcbdba"/><path d="M290,208.92a.66.66,0,0,0-.48.05,1.2,1.2,0,0,0-.22.23c-.28.3-.74.31-1.12.48a1.94,1.94,0,0,0-1,1.23,5.72,5.72,0,0,0-.17,1.61,2.21,2.21,0,0,0,.09.85.74.74,0,0,0,.62.5,1.53,1.53,0,0,0,.63-.27,1.88,1.88,0,0,1,1.25-.2,6.9,6.9,0,0,1,1.56.73,1.61,1.61,0,0,0,1.64,0,2,2,0,0,0,.51-.72c.45-1,1-2.11,0-2.92A6.79,6.79,0,0,0,290,208.92Z" transform="translate(-22.35 -30.32)" fill="#fcbdba"/><path d="M319.72,245.67a112.32,112.32,0,0,1-1.41,12.55c-.9,4.12-1.44,8.8-1.44,8.8l8.33,24s-5.07,3.37-8.33,2.06-11.51-19.71-11.51-19.71l-3.14-20.93,8.31-9.54Z" transform="translate(-22.35 -30.32)" fill="#473f47"/><path d="M296.73,244s-5.94,19.47-5.94,24.53,7.12,30,7.12,30,7.73,2.62,9.54,0l1.81-2.62-4.35-25.1s6.16-13.1,7.25-16.47a36.45,36.45,0,0,0,1.41-6.37Z" transform="translate(-22.35 -30.32)" fill="#473f47"/><path d="M299.23,190.67a13.15,13.15,0,0,0-1.31,4.43,4.41,4.41,0,0,0,1.77,4,4.84,4.84,0,0,1,1.05.68c1.12,1.14-.16,3.21.48,4.69a2.21,2.21,0,0,0,2.76,1,3.68,3.68,0,0,0,2-2.43,11.32,11.32,0,0,0,.38-3.29l.11-6.61a8.46,8.46,0,0,0-.67-4.31,4.29,4.29,0,0,0-4-2.16C300.26,187,299.79,189.38,299.23,190.67Z" transform="translate(-22.35 -30.32)" fill="#fcbdba"/><path d="M276.17,223.67S288.85,235,289.75,235s6.53-7.12,6.53-7.12l.45,16.11a37.41,37.41,0,0,0,4.88,2.42c2.74,1.12,6.21,2.16,9.24,1.88,6.16-.56,8.87-2.62,8.87-2.62l-3.79-37.94s-7.18-5.17-9.63-4.38a15.12,15.12,0,0,1-5.31,0c-3.54-.46-7.16,4.38-7.16,4.38l-4.71,15.47-11.05-3.92A4.24,4.24,0,0,0,276.17,223.67Z" transform="translate(-22.35 -30.32)" fill="#6ed796"/><path d="M300.3,183.5c1.33-1.21,4.34-1.71,5.81-1.87a8,8,0,0,1,6.35,1.86c2.4,2.28,2.65,6,2.62,9.42S315,200,317,202.6c1.72,2.22,4.53,3.14,6.72,4.85a9.48,9.48,0,0,1,3.8,6.82c.51,10.28-15.19,5.87-20.38,3.58a7.93,7.93,0,0,1-2.49-1.54A7.31,7.31,0,0,1,303,213.4a15.43,15.43,0,0,1,.58-11.2c.24-.52.5-1.17.17-1.63a1.71,1.71,0,0,0-.66-.46,3.75,3.75,0,0,1-2.31-3.33,6.46,6.46,0,0,1,1.38-2.86,3.29,3.29,0,0,0,.62-3c-.36-.81-1.22-1.21-1.86-1.8-1.12-1-1.93-3.69-1-5.13A2.55,2.55,0,0,1,300.3,183.5Z" transform="translate(-22.35 -30.32)" fill="#f6a569"/></svg>