<?xml version="1.0" ?><svg data-name="Layer 1" id="Layer_1" viewBox="0 0 32 32" xmlns="http://www.w3.org/2000/svg"><defs></defs><title/><path class="cls-1" d="M16,28.69A11.39,11.39,0,1,1,27.39,17.31,11.39,11.39,0,0,1,16,28.69Zm0-20.9a9.52,9.52,0,1,0,9.52,9.52A9.53,9.53,0,0,0,16,7.79Z"/><path class="cls-2" d="M29.07,10.4a.93.93,0,0,1-.66-.27L23.18,4.9A.93.93,0,0,1,24.5,3.58l5.23,5.23a.93.93,0,0,1-.66,1.59Z"/><path class="cls-2" d="M2.93,10.4a.93.93,0,0,1-.66-1.59L7.5,3.58A.93.93,0,0,1,8.82,4.9L3.59,10.13A.93.93,0,0,1,2.93,10.4Z"/><path class="cls-2" d="M15.35,18.89a.93.93,0,0,1-.66-.27l-3.27-3.27A.93.93,0,0,1,12.74,14L16,17.3a.93.93,0,0,1-.66,1.59Z"/><path class="cls-1" d="M16,19.55a.93.93,0,0,1-.93-.94V10.77a.93.93,0,0,1,1.86,0v7.84A.93.93,0,0,1,16,19.55Z"/></svg>