<svg xmlns="http://www.w3.org/2000/svg" xmlns:xlink="http://www.w3.org/1999/xlink" width="267" height="125" viewBox="0 0 267 125"><defs><radialGradient id="a" cx="0.229" cy="0" r="1.137" gradientUnits="objectBoundingBox"><stop offset="0" stop-color="#7be495"/><stop offset="1" stop-color="#329d9c"/></radialGradient></defs><path d="M75.331,111.15V99.825A24.5,24.5,0,0,1,99.825,75.331H111.15a13.171,13.171,0,1,0,0-26.341H99.825A24.5,24.5,0,0,1,75.331,24.495V13.171a13.171,13.171,0,1,0-26.341,0V24.495A24.5,24.5,0,0,1,24.495,48.99H13.171a13.171,13.171,0,1,0,0,26.341H24.495A24.5,24.5,0,0,1,48.99,99.825V111.15a13.171,13.171,0,1,0,26.341,0Z" fill="url(#a)"/><path d="M75.331,111.15V99.825A24.5,24.5,0,0,1,99.825,75.331H111.15a13.171,13.171,0,1,0,0-26.341H99.825A24.5,24.5,0,0,1,75.331,24.495V13.171a13.171,13.171,0,1,0-26.341,0V24.495A24.5,24.5,0,0,1,24.495,48.99H13.171a13.171,13.171,0,1,0,0,26.341H24.495A24.5,24.5,0,0,1,48.99,99.825V111.15a13.171,13.171,0,1,0,26.341,0Z" transform="translate(141.749)" fill="url(#a)"/></svg>